<?xml version="1.0" standalone="no"?>
<!DOCTYPE svg PUBLIC "-//W3C//DTD SVG 20010904//EN"
 "http://www.w3.org/TR/2001/REC-SVG-20010904/DTD/svg10.dtd">
<svg version="1.0" xmlns="http://www.w3.org/2000/svg"
 width="4500.000000pt" height="4500.000000pt" viewBox="0 0 4500.000000 4500.000000"
 preserveAspectRatio="xMidYMid meet">

<g transform="translate(0.000000,4500.000000) scale(0.100000,-0.100000)"
fill="#000000" stroke="none">
<path d="M21930 44994 c-52 -2 -216 -8 -365 -14 -2560 -102 -5102 -648 -7473
-1604 -914 -369 -1850 -822 -2707 -1309 -1485 -844 -2824 -1823 -4135 -3022
-252 -231 -1064 -1043 -1295 -1295 -1764 -1929 -3110 -4002 -4128 -6355 -949
-2195 -1546 -4585 -1747 -6985 -58 -702 -74 -1118 -74 -1910 0 -667 6 -914 39
-1435 153 -2406 685 -4757 1579 -6973 369 -914 822 -1850 1309 -2707 844
-1485 1823 -2824 3022 -4135 231 -252 1043 -1064 1295 -1295 1929 -1764 4002
-3111 6355 -4128 2339 -1011 4895 -1622 7455 -1781 539 -34 772 -40 1440 -40
810 0 1261 18 1970 80 3329 290 6503 1299 9380 2982 2076 1214 3972 2779 5559
4587 1689 1924 3040 4120 3983 6475 886 2212 1410 4537 1563 6935 33 519 39
768 39 1435 0 769 -15 1191 -69 1850 -393 4807 -2314 9342 -5496 12970 -360
411 -551 614 -1023 1086 -470 469 -672 660 -1081 1019 -1767 1551 -3754 2807
-5930 3748 -1778 768 -3689 1309 -5630 1591 -752 110 -1447 175 -2295 216
-209 11 -1348 21 -1540 14z m713 -5091 c85 -142 159 -268 166 -280 l12 -23
-200 0 -200 0 -190 264 c-105 145 -194 271 -197 280 -5 14 18 16 225 16 l230
0 154 -257z m4485 -124 c306 -93 604 -190 662 -215 329 -138 554 -387 610
-672 20 -101 8 -317 -24 -430 -69 -241 -191 -443 -339 -560 -67 -54 -181 -118
-257 -146 l-45 -16 105 -108 c189 -192 271 -364 294 -619 14 -150 -30 -391
-103 -570 -139 -337 -384 -554 -727 -644 -76 -20 -113 -24 -249 -23 -114 0
-182 5 -235 17 -137 31 -1400 422 -1397 432 2 6 260 846 572 1868 313 1021
570 1857 572 1857 2 0 255 -77 561 -171z m-4383 -494 c50 -9 137 -32 195 -51
412 -138 771 -507 900 -924 63 -203 62 -191 67 -1052 l5 -788 -276 0 -276 0 0
217 0 218 -44 -65 c-115 -171 -329 -314 -565 -378 -88 -24 -112 -26 -296 -26
-181 0 -210 2 -312 26 -270 64 -490 188 -692 390 -211 210 -344 460 -397 743
-28 148 -26 432 4 572 62 288 180 502 397 719 251 251 519 380 870 418 79 8
332 -3 420 -19z m-7309 -1727 c357 -618 665 -1162 686 -1210 80 -186 112 -345
112 -553 -1 -297 -93 -594 -256 -833 -117 -170 -338 -356 -550 -463 -344 -173
-740 -194 -1123 -58 -445 157 -788 534 -909 1002 -121 465 23 1010 357 1350
340 346 783 485 1190 373 l87 -24 -12 21 c-6 12 -168 294 -360 626 -192 333
-350 609 -351 613 -2 9 451 276 469 277 7 1 304 -504 660 -1121z m2598 986
c101 -20 247 -66 340 -108 378 -174 650 -478 774 -866 61 -191 67 -237 66
-465 0 -203 -1 -214 -32 -326 -142 -529 -511 -906 -1021 -1045 -141 -39 -252
-54 -392 -54 -156 0 -280 20 -434 71 -413 137 -730 429 -886 819 -194 483
-134 977 170 1410 67 96 243 267 341 331 204 135 445 222 685 249 102 11 284
3 389 -16z m14043 -895 l153 -82 -33 -61 c-569 -1069 -1212 -2251 -1262 -2321
-208 -292 -512 -486 -889 -567 -136 -29 -409 -32 -535 -5 -453 98 -825 377
-1020 765 -52 104 -103 255 -132 392 -32 149 -32 392 -1 537 54 252 167 480
338 683 192 229 476 389 814 461 138 29 390 32 523 6 267 -53 518 -181 699
-355 140 -135 237 -295 290 -479 l24 -81 342 638 c189 350 345 640 348 643 4
3 47 -17 98 -44 50 -27 160 -86 243 -130z m713 -2037 c223 -53 417 -153 608
-315 486 -411 648 -1113 386 -1667 -64 -136 -177 -300 -282 -409 l-90 -95 -29
25 c-16 13 -401 341 -857 729 -455 388 -831 704 -834 704 -16 -3 -94 -177
-113 -254 -18 -71 -21 -103 -16 -205 5 -133 26 -213 83 -329 149 -297 511
-518 826 -504 l88 4 242 -209 c134 -116 244 -214 246 -218 5 -12 -205 -77
-310 -96 -125 -23 -380 -23 -503 0 -218 40 -426 126 -600 248 -119 85 -285
252 -363 367 -167 245 -242 494 -242 807 0 308 70 540 238 791 232 345 585
574 987 639 129 21 420 13 535 -13z m-20357 -216 c229 -58 453 -201 672 -428
126 -129 1050 -1177 1050 -1189 0 -11 -393 -359 -404 -359 -5 0 -239 261 -521
580 -282 319 -542 608 -579 641 -126 116 -269 197 -396 224 -88 18 -122 18
-210 0 -236 -50 -483 -278 -551 -511 -55 -188 19 -429 201 -654 54 -67 920
-1052 1009 -1148 l31 -34 -46 -41 c-25 -23 -118 -106 -207 -185 l-161 -142
-513 581 c-522 591 -615 703 -703 851 -296 498 -231 1018 180 1432 228 231
483 368 751 405 110 15 286 5 397 -23z m-2980 -1119 c65 -32 140 -109 170
-175 31 -69 31 -199 -1 -264 -35 -72 -96 -133 -164 -167 -53 -27 -72 -31 -142
-31 -107 0 -179 32 -253 113 -137 151 -113 375 55 497 91 67 229 78 335 27z
m1629 -1473 c574 -499 1047 -910 1052 -914 7 -7 -333 -411 -353 -418 -9 -3
-2093 1808 -2098 1824 -3 9 341 414 352 414 3 0 474 -408 1047 -906z m23953
557 c448 -118 838 -545 946 -1036 18 -84 16 -321 -4 -410 -38 -168 -115 -327
-232 -480 -111 -146 -268 -282 -887 -768 -334 -262 -612 -478 -617 -479 -10
-3 -341 409 -341 423 0 3 269 217 597 475 608 478 707 561 792 668 99 125 161
279 161 401 0 206 -164 470 -374 603 -84 53 -168 77 -276 76 -118 0 -193 -20
-325 -84 -131 -63 -160 -84 -837 -617 -324 -255 -583 -452 -588 -447 -31 33
-329 420 -327 426 5 14 1199 947 1302 1017 183 124 402 219 580 251 89 16 340
5 430 -19z m-24841 -1639 c455 -666 829 -1218 832 -1226 3 -8 -61 -113 -146
-241 -116 -174 -155 -225 -168 -221 -9 3 -669 141 -1467 307 -797 166 -1452
303 -1454 305 -2 2 65 108 150 235 85 127 156 235 159 240 3 4 494 -97 1090
-226 596 -129 1085 -233 1087 -232 1 2 -279 410 -623 908 -345 497 -628 909
-631 916 -2 6 67 117 153 247 149 224 159 236 174 219 10 -10 389 -564 844
-1231z m27646 -271 c67 -117 123 -220 124 -229 1 -11 -132 -92 -419 -258 -231
-134 -421 -247 -423 -252 -1 -5 63 -123 143 -262 80 -139 142 -257 138 -261
-12 -11 -443 -259 -451 -259 -4 0 -72 115 -152 255 -80 140 -149 254 -154 255
-12 0 -818 -465 -904 -522 -201 -134 -332 -305 -363 -473 -15 -83 -5 -200 26
-287 14 -40 28 -80 31 -88 4 -12 -47 -45 -193 -130 -109 -63 -212 -122 -230
-133 l-32 -18 -31 61 c-45 88 -96 250 -116 360 -21 120 -14 309 15 425 72 288
268 535 593 747 46 30 270 162 498 293 228 131 419 241 423 245 5 4 -38 87
-94 184 -56 97 -100 178 -98 180 2 2 106 62 231 134 l228 131 54 -92 c29 -51
75 -129 101 -175 35 -61 52 -82 64 -79 9 2 203 113 431 245 312 181 418 237
426 229 6 -7 66 -108 134 -226z m-29005 -1757 c127 -59 234 -110 238 -114 6
-5 -610 -1353 -630 -1379 -3 -4 -463 207 -476 219 -8 7 622 1380 633 1380 3 0
109 -48 235 -106z m28285 -289 c589 -116 998 -515 1138 -1110 23 -98 26 -131
27 -300 0 -207 -10 -274 -67 -455 -67 -213 -171 -384 -327 -541 -121 -120
-252 -212 -411 -288 -131 -62 -300 -114 -316 -98 -6 7 -188 476 -404 1042
-216 567 -396 1034 -401 1039 -19 21 -189 -111 -260 -203 -195 -252 -215 -581
-55 -906 88 -180 206 -303 373 -388 l83 -42 113 -305 c63 -168 113 -306 112
-308 -8 -9 -214 35 -305 64 -186 61 -345 151 -505 286 -251 212 -431 531 -490
873 -23 130 -23 339 -1 465 55 311 234 633 464 833 210 183 509 317 797 356
98 14 334 6 435 -14z m-29340 -1410 c92 -18 1554 -345 1557 -348 2 -2 -118
-531 -121 -535 -2 -1 -342 74 -757 167 -415 94 -794 175 -844 182 -193 25
-388 -2 -511 -72 -80 -45 -168 -144 -214 -241 -126 -264 -111 -534 38 -716 79
-96 231 -188 402 -243 52 -17 424 -104 825 -195 402 -90 740 -166 751 -169 21
-5 20 -9 -38 -267 -33 -145 -62 -266 -66 -269 -4 -3 -331 67 -727 157 -396 89
-762 170 -814 179 -132 23 -315 21 -412 -4 -227 -59 -370 -213 -428 -461 -32
-135 -36 -215 -17 -310 48 -237 210 -388 523 -489 65 -21 448 -112 850 -202
544 -122 733 -168 733 -178 0 -8 -26 -128 -57 -268 -38 -169 -61 -253 -69
-253 -19 0 -1423 316 -1531 345 -516 136 -844 422 -959 838 -36 127 -45 367
-19 518 74 447 294 747 634 869 l86 31 -60 62 c-250 255 -323 597 -219 1010
119 471 439 789 881 872 107 20 463 14 583 -10z m32442 -3132 c19 -148 33
-271 29 -274 -5 -5 -3826 -520 -3856 -519 -8 0 -74 444 -79 529 -1 12 369 64
1909 272 1051 141 1921 257 1935 258 l26 1 36 -267z m-2802 -993 c410 -22 789
-46 843 -55 385 -59 668 -212 857 -464 166 -221 242 -528 210 -850 -16 -168
-49 -295 -110 -418 -85 -173 -184 -280 -359 -386 -82 -51 -83 -52 -60 -67 311
-204 456 -514 436 -929 -30 -608 -374 -1020 -938 -1125 -209 -39 -271 -39
-1139 5 -448 23 -816 42 -817 43 -4 3 27 540 32 545 3 2 336 -12 741 -33 991
-52 1075 -48 1279 53 148 73 253 214 290 386 19 92 19 282 0 364 -64 270 -298
430 -685 470 -58 5 -431 27 -830 47 -399 20 -726 38 -728 39 -6 5 25 536 32
542 4 4 337 -10 742 -31 814 -43 979 -44 1119 -7 235 62 383 202 441 416 25
94 30 287 10 379 -63 281 -294 445 -686 485 -58 5 -431 27 -830 47 -399 20
-727 38 -729 40 -1 1 3 124 10 273 l13 271 55 0 c31 0 391 -18 801 -40z
m-30134 -563 c2 -2 25 -507 49 -1122 25 -616 48 -1121 49 -1123 11 -10 153 35
236 75 82 40 107 58 190 142 78 78 105 113 143 188 59 114 86 217 94 350 16
265 -65 505 -227 676 l-77 82 -10 320 c-5 176 -8 322 -6 324 7 9 119 -52 218
-117 245 -162 467 -453 565 -742 47 -139 61 -228 67 -420 8 -282 -27 -461
-132 -675 -203 -410 -583 -700 -1028 -782 -142 -27 -439 -24 -574 5 -289 62
-519 189 -733 402 -274 274 -402 587 -403 990 -1 344 90 619 295 891 233 309
551 487 965 539 63 8 310 6 319 -3z m604 -3142 c240 -53 482 -177 680 -348
292 -252 470 -662 470 -1082 0 -286 -78 -533 -247 -789 -83 -124 -236 -284
-350 -366 -102 -72 -273 -157 -388 -193 -80 -25 -2498 -639 -2524 -641 -17 -1
-155 526 -140 535 5 3 319 84 697 179 378 95 690 176 695 180 4 3 -15 19 -43
34 -190 103 -363 289 -454 488 -83 180 -116 328 -123 554 -6 200 8 309 62 470
179 538 603 897 1170 990 108 18 394 11 495 -11z m28565 -695 c627 -204 1169
-383 1205 -397 100 -40 168 -76 268 -143 415 -277 669 -805 622 -1291 -37
-388 -209 -737 -477 -970 -190 -165 -435 -287 -686 -341 -136 -29 -378 -31
-517 -4 -226 44 -463 145 -631 271 -265 198 -472 531 -546 875 -25 120 -25
420 0 540 88 411 296 698 623 860 l71 35 -689 225 c-379 123 -692 228 -694
232 -4 5 124 414 161 515 3 9 24 5 77 -12 40 -13 586 -191 1213 -395z m503
-3641 c961 -463 1750 -844 1753 -848 8 -8 -227 -497 -238 -494 -16 3 -3496
1682 -3503 1690 -9 9 221 493 233 493 4 0 794 -379 1755 -841z m-26909 235
c77 -124 141 -229 141 -233 0 -4 -79 -57 -175 -117 l-176 -109 88 -6 c118 -8
199 -31 319 -89 177 -86 325 -213 433 -373 109 -162 195 -375 227 -561 22
-133 15 -399 -15 -534 -94 -424 -321 -734 -697 -955 -518 -303 -1190 -239
-1659 159 -237 201 -428 545 -481 863 -34 206 -8 482 66 701 83 247 266 502
472 658 59 45 1297 822 1309 822 4 0 70 -102 148 -226z m25556 -632 c130 -28
205 -55 340 -122 357 -178 610 -463 730 -823 179 -539 58 -1072 -337 -1482
-199 -207 -422 -329 -725 -398 -84 -18 -128 -21 -308 -22 -187 0 -221 3 -305
24 -116 28 -272 88 -361 139 -127 72 -1278 837 -1275 847 2 6 70 110 150 232
l147 222 172 -113 c95 -63 173 -113 174 -112 1 1 -9 30 -23 64 -70 175 -72
448 -3 655 80 244 283 505 515 664 195 133 419 214 684 247 81 10 337 -3 425
-22z m-23165 -1432 c242 -28 462 -133 655 -313 l78 -73 -207 -173 -207 -173
-32 27 c-127 104 -239 149 -372 148 -125 0 -233 -32 -370 -112 -92 -53 -115
-71 -1179 -959 -818 -682 -1001 -831 -1012 -820 -38 40 -334 401 -334 408 0
18 2067 1733 2175 1805 192 129 395 212 570 234 98 12 138 12 235 1z m21401
-1107 c322 -324 606 -615 632 -649 133 -176 224 -350 267 -509 28 -102 38
-321 20 -433 -58 -366 -332 -729 -710 -944 -114 -64 -284 -115 -427 -127 -304
-26 -588 73 -883 310 -47 37 -343 326 -658 641 l-572 573 195 195 195 195 587
-586 c617 -615 663 -655 817 -723 128 -57 263 -71 379 -41 224 58 464 297 522
521 44 169 -9 368 -149 559 -37 51 -268 291 -630 653 l-571 572 190 190 c104
105 194 190 200 190 6 0 274 -264 596 -587z m-21409 -332 c287 -62 518 -190
733 -405 229 -229 353 -469 400 -771 21 -136 16 -418 -10 -535 -60 -270 -193
-508 -399 -714 -213 -213 -435 -337 -706 -396 -514 -113 -978 30 -1345 412
-255 265 -385 574 -401 953 -13 295 62 551 237 815 60 90 271 320 294 320 6 0
383 -340 839 -755 l829 -756 25 37 c38 56 88 171 106 245 23 92 21 253 -4 355
-39 163 -111 283 -247 415 -105 101 -155 137 -265 189 -113 54 -182 71 -323
78 l-120 7 -230 213 c-127 118 -231 218 -233 223 -5 12 32 26 146 55 147 37
204 43 397 39 134 -3 205 -9 277 -24z m-3199 -965 c61 -29 124 -92 159 -158
20 -37 23 -58 23 -143 0 -85 -3 -106 -23 -143 -36 -68 -98 -128 -165 -162 -51
-26 -72 -30 -137 -30 -102 0 -158 21 -227 84 -131 120 -152 302 -50 443 36 51
116 108 178 129 68 22 175 13 242 -20z m21877 -527 c131 -23 284 -90 420 -182
41 -28 132 -108 201 -177 108 -107 171 -186 439 -545 172 -231 318 -426 324
-433 10 -10 46 12 174 108 90 66 164 120 166 120 10 0 317 -420 313 -427 -3
-4 -75 -60 -161 -123 -103 -77 -154 -120 -150 -129 2 -8 136 -189 296 -403
160 -214 289 -390 287 -392 -31 -27 -441 -327 -442 -325 -41 61 -592 789 -598
789 -6 0 -378 -273 -466 -342 -8 -7 -56 50 -164 194 -83 112 -156 208 -161
214 -6 8 63 65 218 180 125 93 234 174 242 180 12 8 -38 81 -268 390 -331 444
-396 523 -497 605 -221 177 -432 206 -666 90 l-79 -38 -159 211 -159 211 27
22 c40 32 227 127 308 156 70 25 194 53 270 61 54 5 217 -3 285 -15z m-16352
-320 c330 -35 656 -194 903 -439 250 -248 380 -554 380 -895 0 -195 -36 -346
-126 -525 -25 -50 -47 -90 -49 -90 -2 0 -110 63 -238 139 l-235 140 34 69
c181 376 11 764 -432 984 -230 115 -454 128 -628 36 -75 -40 -189 -151 -236
-231 -66 -112 -85 -172 -88 -287 -4 -98 -2 -111 30 -202 41 -118 102 -217 203
-328 268 -297 573 -674 647 -803 71 -121 107 -268 107 -430 0 -131 -16 -216
-62 -330 -105 -262 -287 -470 -503 -578 -128 -63 -228 -89 -380 -96 -215 -9
-425 42 -648 160 -458 242 -697 593 -697 1021 0 127 16 224 54 340 28 83 115
266 127 266 6 0 458 -266 467 -274 1 -2 -14 -37 -33 -79 -116 -251 -78 -469
112 -648 261 -247 617 -301 837 -125 56 45 131 157 158 234 51 153 15 325
-105 502 -17 25 -79 95 -137 155 -335 347 -587 658 -665 820 -81 167 -104 415
-56 600 46 176 138 355 262 509 234 290 594 429 997 385z m15162 -434 c388
-85 690 -285 900 -595 267 -395 333 -850 188 -1295 -67 -207 -173 -380 -328
-536 -199 -199 -463 -342 -750 -405 -133 -30 -449 -27 -589 4 -291 65 -503
183 -699 387 -54 55 -127 145 -164 201 -67 99 -154 270 -164 323 -6 27 2 31
985 546 545 286 991 525 991 531 0 5 -32 45 -70 87 -153 166 -340 247 -570
247 -140 0 -245 -26 -385 -94 -234 -115 -379 -268 -461 -485 l-32 -85 -293
-150 -292 -149 6 107 c17 274 97 510 252 741 95 143 192 247 321 344 197 147
420 245 654 287 102 18 398 12 500 -11z m-2770 -1066 c300 -37 521 -162 654
-371 43 -67 98 -200 88 -210 -7 -7 -495 -159 -497 -155 -1 1 -12 23 -24 49
-65 138 -253 214 -463 188 -261 -32 -487 -155 -563 -307 -26 -50 -30 -69 -30
-138 1 -147 71 -245 204 -285 127 -39 278 -41 651 -10 229 19 432 16 522 -8
164 -44 308 -132 387 -239 172 -230 210 -538 94 -766 -143 -285 -433 -489
-833 -588 -83 -20 -120 -23 -285 -24 -204 0 -244 7 -385 62 -186 74 -333 223
-411 418 -17 42 -29 78 -27 80 2 2 407 127 489 151 10 3 21 -9 33 -37 53 -120
200 -187 386 -176 175 11 316 67 425 168 85 80 119 148 119 238 -1 147 -85
233 -255 260 -90 15 -257 13 -434 -4 -263 -26 -487 -30 -593 -11 -300 53 -506
224 -600 501 -105 312 -51 567 170 800 264 279 787 463 1178 414z"/>
<path d="M26930 39263 c-5 -21 -72 -240 -148 -488 -91 -295 -135 -452 -128
-456 6 -4 146 -48 311 -99 297 -91 301 -92 384 -87 73 4 94 10 170 48 203 100
321 290 321 516 0 203 -105 346 -312 425 -62 23 -563 178 -577 178 -6 0 -15
-17 -21 -37z"/>
<path d="M26480 37794 c0 -2 -86 -284 -190 -626 -105 -342 -187 -625 -183
-628 5 -4 181 -60 393 -125 415 -127 478 -139 593 -115 277 57 509 387 509
725 0 232 -104 411 -294 504 -50 25 -212 80 -413 141 -181 55 -349 107 -372
115 -24 7 -43 12 -43 9z"/>
<path d="M22275 38754 c-177 -39 -304 -111 -435 -244 -101 -102 -167 -209
-209 -335 -135 -408 9 -835 362 -1074 205 -139 517 -177 767 -94 275 90 493
326 571 618 32 118 32 354 1 478 -45 178 -123 309 -265 444 -96 90 -212 157
-337 194 -101 29 -351 36 -455 13z"/>
<path d="M14620 36685 c-269 -60 -503 -232 -619 -454 -63 -122 -92 -234 -98
-381 -6 -142 8 -232 55 -354 133 -343 414 -566 760 -606 363 -41 759 191 903
530 97 228 97 488 2 703 -68 153 -162 282 -271 373 -80 66 -236 145 -347 174
-105 28 -293 36 -385 15z"/>
<path d="M17621 38015 c-317 -72 -526 -232 -651 -498 -127 -270 -107 -593 54
-868 118 -201 338 -358 584 -415 174 -41 399 -8 587 85 179 89 300 210 385
386 131 269 126 542 -15 830 -109 224 -282 374 -521 455 -88 29 -114 33 -229
36 -89 3 -150 -1 -194 -11z"/>
<path d="M29620 36925 c-284 -59 -506 -232 -640 -500 -69 -140 -100 -265 -100
-407 0 -363 186 -650 524 -809 345 -161 747 -80 1012 204 161 173 254 404 254
631 0 423 -271 766 -689 872 -108 28 -253 31 -361 9z"/>
<path d="M32347 35085 c-43 -8 -111 -28 -151 -43 -69 -27 -206 -98 -206 -107
0 -7 1272 -1087 1276 -1083 13 13 55 147 68 218 63 328 -60 652 -323 852 -82
62 -225 132 -311 153 -96 23 -260 28 -353 10z"/>
<path d="M36794 28834 c32 -90 577 -1507 584 -1520 6 -10 24 1 76 48 231 208
341 531 281 819 -42 201 -165 399 -318 515 -141 107 -306 163 -505 171 l-132
6 14 -39z"/>
<path d="M6766 22679 c-238 -103 -435 -329 -503 -579 -28 -101 -25 -339 5
-445 81 -282 288 -495 570 -585 48 -16 88 -27 90 -26 3 4 -58 1550 -64 1614
-3 30 -10 52 -17 52 -7 -1 -43 -14 -81 -31z"/>
<path d="M7446 19624 c-317 -63 -547 -238 -676 -518 -60 -129 -75 -200 -73
-356 1 -151 18 -235 76 -369 107 -249 336 -436 613 -502 127 -30 329 -23 459
15 267 80 452 233 570 471 72 147 89 219 89 375 0 141 -22 245 -78 380 -109
256 -344 446 -628 504 -93 19 -256 19 -352 0z"/>
<path d="M36952 18629 c-83 -14 -199 -56 -286 -102 -215 -115 -366 -311 -432
-562 -35 -134 -37 -309 -5 -430 27 -102 96 -241 161 -328 171 -225 498 -370
795 -354 312 18 594 200 728 471 184 373 128 753 -153 1037 -128 129 -256 202
-444 250 -92 24 -279 34 -364 18z"/>
<path d="M9385 15234 c-11 -2 -51 -12 -89 -20 -266 -61 -517 -259 -633 -499
-67 -139 -86 -225 -87 -385 -1 -160 18 -241 90 -387 151 -302 421 -482 751
-500 169 -10 316 24 472 108 317 170 493 461 492 814 0 132 -23 232 -80 352
-125 260 -318 426 -576 494 -77 20 -291 35 -340 23z"/>
<path d="M35121 14895 c-282 -62 -497 -230 -626 -490 -65 -131 -87 -224 -88
-370 -2 -355 191 -654 528 -821 150 -74 238 -96 390 -96 359 -1 638 176 804
508 68 136 86 216 85 379 0 112 -5 156 -22 220 -72 262 -241 464 -496 592
-130 65 -250 93 -395 92 -64 0 -145 -7 -180 -14z"/>
<path d="M11322 11438 c-44 -112 -62 -203 -62 -326 0 -275 108 -504 319 -674
83 -66 192 -125 296 -158 97 -31 290 -39 397 -16 123 25 326 112 316 135 -4 9
-1216 1115 -1226 1119 -4 1 -22 -35 -40 -80z"/>
<path d="M29775 8684 c-401 -211 -734 -385 -740 -387 -17 -7 76 -96 154 -148
161 -106 338 -154 531 -146 135 6 213 27 344 95 221 114 362 283 431 517 33
112 43 286 23 387 l-13 66 -730 -384z"/>
</g>
</svg>
